Coordinates
version=1
nRows=25
nColumns=28
inDegrees=yes

Units are S.I. units (second, meters, Newtons, ...)
Angles are in degrees.

endheader
time	pelvis_tilt	pelvis_list	pelvis_rotation	pelvis_tx	pelvis_ty	pelvis_tz	hip_flexion_r	hip_adduction_r	hip_rotation_r	knee_angle_r	ankle_angle_r	subtalar_angle_r	mtp_angle_r	hip_flexion_l	hip_adduction_l	hip_rotation_l	knee_angle_l	socket_flexion	socket_adduction	socket_rotation	socket_tx	socket_ty	socket_tz	foot_flex	lumbar_extension	lumbar_bending	lumbar_rotation
      0.53333333	     -2.81287938	     -6.83330171	      8.19781246	     -0.01935859	      0.95707906	      0.23624486	     27.45883887	      5.60984748	     -4.64621644	     -9.83248226	      5.56548525	    -15.57269919	     -4.90325321	    -18.83429712	     -8.10993783	     23.26540967	     -7.60005939	      0.00000000	      0.00000000	      0.00000000	      0.00000000	      0.00000000	      0.00000000	      9.46078540	     -5.58197385	      7.38979821	    -19.67994074
      0.53750000	     -2.98002835	     -6.73858126	      7.94123806	     -0.01924196	      0.95668583	      0.23671028	     27.87061884	      5.53664866	     -4.88976591	    -10.28168902	      5.54349732	    -15.22888869	     -3.76564297	    -18.75384189	     -7.92600633	     22.92820950	     -7.55760965	      0.00000000	      0.00000000	      0.00000000	      0.00000000	      0.00000000	      0.00000000	      9.48222466	     -5.40573988	      7.21634548	    -19.53916020
      0.54166667	     -2.89762924	     -6.85868856	      8.06959256	     -0.01278448	      0.95543430	      0.23639801	     28.05808005	      5.71384709	     -4.66732584	    -11.13363456	      5.21628454	    -15.17197587	     -3.69728172	    -19.00608514	     -8.05555677	     23.11154431	     -7.95329109	      0.00000000	      0.00000000	      0.00000000	      0.00000000	      0.00000000	      0.00000000	      9.49498652	     -5.46284034	      7.46788093	    -19.55359603
      0.54583333	     -3.17658540	     -6.72000620	      7.78220267	     -0.00637011	      0.95345657	      0.23676646	     29.07126782	      5.62231070	     -4.82951633	    -12.81613175	      4.18990654	    -15.25877793	     -0.06770716	    -18.95098218	     -7.73160702	     22.86744278	     -8.41116653	      0.00000000	      0.00000000	      0.00000000	      0.00000000	      0.00000000	      0.00000000	      9.56399668	     -5.17615879	      7.29342789	    -19.26710256
      0.55000000	     -3.01044444	     -6.76188011	      7.77608925	      0.00012528	      0.95229251	      0.23668565	     29.29595006	      5.75320776	     -4.75001424	    -13.94669440	      3.58929665	    -15.22651476	      0.06634720	    -19.31716407	     -7.73755290	     22.81698910	     -8.82980925	      0.00000000	      0.00000000	      0.00000000	      0.00000000	      0.00000000	      0.00000000	      9.52845020	     -5.34815143	      7.45614139	    -19.42663191
      0.55416667	     -2.92669266	     -6.90274396	      7.85111188	      0.00672884	      0.95114884	      0.23639947	     29.47779217	      5.96212898	     -4.52048213	    -14.85313682	      3.24237366	    -15.15383150	      0.11387049	    -19.52413186	     -7.84618547	     22.93553525	     -9.32747227	      0.00000000	      0.00000000	      0.00000000	      0.00000000	      0.00000000	      0.00000000	      9.42849244	     -5.39443893	      7.73385659	    -19.44557239
      0.55833333	     -3.12429987	     -6.71679186	      7.52599990	      0.01318483	      0.94938447	      0.23680350	     30.33779629	      5.86403624	     -4.48804045	    -16.47737902	      2.01105196	    -15.38704773	      3.69221400	    -19.50294900	     -7.44400863	     22.65112805	     -9.88905299	      0.00000000	      0.00000000	      0.00000000	      0.00000000	      0.00000000	      0.00000000	      9.38488789	     -5.20746326	      7.53510757	    -19.28471966
      0.56250000	     -3.02471224	     -6.79064551	      7.46311401	      0.01985510	      0.94822121	      0.23675650	     30.62941233	      6.02319164	     -4.39870290	    -17.66239198	      1.49351799	    -15.31011169	      3.68891367	    -19.73850139	     -7.42836917	     22.55527195	    -10.43043974	      0.00000000	      0.00000000	      0.00000000	      0.00000000	      0.00000000	      0.00000000	      9.27066655	     -5.28218189	      7.72610448	    -19.32799560
      0.56666667	     -2.98844175	     -6.78149354	      7.31181623	      0.02647340	      0.94702437	      0.23683113	     31.01096864	      6.12158386	     -4.23084101	    -18.91581491	      0.96093300	    -15.19921413	      3.77309926	    -19.86902879	     -7.26811014	     22.40091788	    -11.07534543	      0.00000000	      0.00000000	      0.00000000	      0.00000000	      0.00000000	      0.00000000	      9.07197063	     -5.31073931	      7.80006556	    -19.30631152
      0.57083333	     -2.91980461	     -6.91817411	      7.34418993	      0.03316591	      0.94607890	      0.23657846	     31.18214123	      6.32459383	     -3.99623505	    -19.83356789	      0.67550757	    -15.10736446	      3.81343981	    -19.95152380	     -7.31235718	     22.44570242	    -11.76728227	      0.00000000	      0.00000000	      0.00000000	      0.00000000	      0.00000000	      0.00000000	      8.81763567	     -5.33518611	      8.07058442	    -19.28138507
      0.57500000	     -3.49259177	     -6.55392542	      6.82747918	      0.03957997	      0.94391675	      0.23724561	     32.50667192	      6.08669533	     -3.67517103	    -21.71054685	      0.07702875	    -14.87271041	      5.70906557	    -19.36503435	     -6.55910222	     22.10269786	    -12.66499239	      0.00000000	      0.00000000	      0.00000000	      0.00000000	      0.00000000	      0.00000000	      8.62490722	     -4.75857076	      7.59564544	    -18.86723738
      0.57916667	     -3.38304193	     -6.72593171	      6.89639880	      0.04643019	      0.94319070	      0.23694910	     32.55588090	      6.31590697	     -3.48129958	    -22.53618227	     -0.15037097	    -14.79334529	      5.72307185	    -19.42508979	     -6.63918863	     22.11372126	    -13.44826030	      0.00000000	      0.00000000	      0.00000000	      0.00000000	      0.00000000	      0.00000000	      8.26933398	     -4.80344738	      7.90369138	    -18.86112478
      0.58333333	     -3.28309240	     -6.62849154	      6.56685681	      0.05307117	      0.94217964	      0.23722029	     32.94985160	      6.35423276	     -3.44323398	    -23.98855769	     -0.70556951	    -14.62972212	      5.84326244	    -19.53635484	     -6.28836167	     21.69069975	    -14.29446634	      0.00000000	      0.00000000	      0.00000000	      0.00000000	      0.00000000	      0.00000000	      7.95396241	     -4.94200936	      7.88778024	    -18.86440702
      0.58750000	     -3.46620398	     -6.46042326	      6.27624274	      0.05960332	      0.94095587	      0.23749445	     33.55593337	      6.33023147	     -3.08289909	    -25.32860368	     -0.84461430	    -14.31407539	      6.34242792	    -19.21823718	     -5.83115666	     21.41021069	    -15.31210015	      0.00000000	      0.00000000	      0.00000000	      0.00000000	      0.00000000	      0.00000000	      7.53759666	     -4.77042390	      7.71181315	    -18.56096907
      0.59166667	     -3.40791702	     -6.54529117	      6.12859146	      0.06649741	      0.94016373	      0.23737609	     33.77395971	      6.47323908	     -3.08195806	    -26.41749939	     -1.05763809	    -14.17673716	      6.52036657	    -19.15257256	     -5.69703115	     21.10329515	    -16.29646625	      0.00000000	      0.00000000	      0.00000000	      0.00000000	      0.00000000	      0.00000000	      7.12043723	     -4.78537784	      7.92954169	    -18.52890565
      0.59583333	     -3.30171151	     -6.71300057	      6.15644880	      0.07337519	      0.93971914	      0.23710721	     33.76767249	      6.69391205	     -2.95890045	    -27.18887957	     -1.16327578	    -14.09753111	      6.57752798	    -19.03576389	     -5.71469060	     20.93950947	    -17.35225216	      0.00000000	      0.00000000	      0.00000000	      0.00000000	      0.00000000	      0.00000000	      6.57738462	     -4.84275207	      8.21593965	    -18.50282278
      0.60000000	     -3.55009110	     -6.41813050	      5.71731718	      0.07991952	      0.93845389	      0.23754912	     34.48013761	      6.55681690	     -2.68113121	    -28.68558715	     -0.99757904	    -13.48833832	      7.34267085	    -18.53618452	     -5.04613376	     20.36879173	    -18.58645356	      0.00000000	      0.00000000	      0.00000000	      0.00000000	      0.00000000	      0.00000000	      6.06803059	     -4.61097786	      7.87602787	    -18.20206590
      0.60416667	     -3.41812036	     -6.62109892	      5.74975322	      0.08685346	      0.93818035	      0.23718958	     34.39863599	      6.78512868	     -2.65111585	    -29.41111619	     -1.06920585	    -13.43356040	      7.39036576	    -18.35812153	     -5.08983876	     20.09512383	    -19.76521736	      0.00000000	      0.00000000	      0.00000000	      0.00000000	      0.00000000	      0.00000000	      5.45504610	     -4.68171008	      8.21596534	    -18.17984974
      0.60833333	     -3.60101246	     -6.51454421	      5.43633478	      0.09362357	      0.93723006	      0.23731874	     34.88492270	      6.73236457	     -2.67082434	    -30.62348756	     -0.77921914	    -12.78156033	      8.25449364	    -17.81243978	     -4.66855429	     19.39106852	    -21.12221415	      0.00000000	      0.00000000	      0.00000000	      0.00000000	      0.00000000	      0.00000000	      4.92010657	     -4.46504893	      8.12726767	    -17.97671036
      0.61250000	     -3.44740880	     -6.69789978	      5.47248345	      0.10048012	      0.93713959	      0.23698310	     34.72812000	      6.94510484	     -2.66771401	    -31.27956520	     -0.80637258	    -12.74530243	      8.29946728	    -17.55035207	     -4.70124216	     18.97613331	    -22.42896450	      0.00000000	      0.00000000	      0.00000000	      0.00000000	      0.00000000	      0.00000000	      4.22250285	     -4.58456066	      8.43355192	    -17.97024956
      0.61666667	     -3.49832839	     -6.66909753	      5.23920071	      0.10727089	      0.93658293	      0.23704141	     34.93380150	      6.94873955	     -2.76237940	    -32.25138438	     -0.53300507	    -12.25272518	      9.75686721	    -17.02606793	     -4.42763174	     18.12665762	    -23.90499610	      0.00000000	      0.00000000	      0.00000000	      0.00000000	      0.00000000	      0.00000000	      3.65662476	     -4.49683253	      8.44425235	    -17.94338164
      0.62083333	     -3.32957319	     -6.83614164	      5.28377041	      0.11400400	      0.93666633	      0.23675595	     34.70459105	      7.14585908	     -2.77686240	    -32.83250388	     -0.50953048	    -12.23408980	      9.78481992	    -16.65935541	     -4.47829878	     17.55233470	    -25.34795249	      0.00000000	      0.00000000	      0.00000000	      0.00000000	      0.00000000	      0.00000000	      2.90870723	     -4.63915107	      8.71792039	    -17.92640790
      0.62500000	     -3.28760295	     -6.94627566	      5.04070247	      0.12079472	      0.93647124	      0.23704155	     34.65609651	      7.40382098	     -2.71036880	    -33.51939728	     -0.13490683	    -12.13934283	      9.94374022	    -16.14341496	     -4.43277649	     16.42490980	    -26.90245646	      0.00000000	      0.00000000	      0.00000000	      0.00000000	      0.00000000	      0.00000000	      2.37555925	     -4.66940019	      8.86636047	    -17.87985657
      0.62916667	     -3.25992419	     -7.07748344	      4.94005747	      0.12750145	      0.93640843	      0.23714902	     34.55486489	      7.63569699	     -2.65437098	    -34.08982545	      0.13343734	    -12.03270650	     10.07435021	    -15.52858202	     -4.47797419	     15.43571003	    -28.50393217	      0.00000000	      0.00000000	      0.00000000	      0.00000000	      0.00000000	      0.00000000	      1.76554804	     -4.67961952	      9.03838436	    -17.77522348
      0.63333333	     -3.29692651	     -7.21236632	      4.79745970	      0.13411853	      0.93634891	      0.23744424	     34.48560341	      7.90682849	     -2.54751429	    -34.58695574	      0.43153393	    -11.93604509	     10.21897114	    -14.78339285	     -4.55711413	     14.36552896	    -30.17109147	      0.00000000	      0.00000000	      0.00000000	      0.00000000	      0.00000000	      0.00000000	      1.13878711	     -4.61897152	      9.18286746	    -17.62880280
